<?xml version="1.0" encoding="UTF-8"?>
<svg id="Layer_1" data-name="Layer 1" xmlns="http://www.w3.org/2000/svg" version="1.1" viewBox="0 0 24 24">
  <defs>
    <style>
      .cls-1, .cls-2 {
        fill: #000;
        stroke-width: 0px;
      }

      .cls-2 {
        fill-rule: evenodd;
      }
    </style>
  </defs>
  <rect class="cls-1" x="9.5" y="5.2" width="5" height="1.5"/>
  <rect class="cls-1" x="9.5" y="17.2" width="5" height="1.5"/>
  <rect class="cls-1" x="3.5" y="11.2" width="5" height="1.5" transform="translate(-6 18) rotate(-90)"/>
  <rect class="cls-1" x="15.5" y="11.2" width="5" height="1.5" transform="translate(6 30) rotate(-90)"/>
  <path class="cls-2" d="M7.5,2.5h-3c-1.1,0-2,.9-2,2v3c0,1.1.9,2,2,2h3c1.1,0,2-.9,2-2v-3c0-1.1-.9-2-2-2ZM8,7.5c0,.3-.2.5-.5.5h-3c-.3,0-.5-.2-.5-.5v-3c0-.3.2-.5.5-.5h3c.3,0,.5.2.5.5v3Z"/>
  <path class="cls-2" d="M19.5,2.5h-3c-1.1,0-2,.9-2,2v3c0,1.1.9,2,2,2h3c1.1,0,2-.9,2-2v-3c0-1.1-.9-2-2-2ZM20,7.5c0,.3-.2.5-.5.5h-3c-.3,0-.5-.2-.5-.5v-3c0-.3.2-.5.5-.5h3c.3,0,.5.2.5.5v3Z"/>
  <path class="cls-2" d="M19.5,14.5h-3c-1.1,0-2,.9-2,2v3c0,1.1.9,2,2,2h3c1.1,0,2-.9,2-2v-3c0-1.1-.9-2-2-2ZM20,19.5c0,.3-.2.5-.5.5h-3c-.3,0-.5-.2-.5-.5v-3c0-.3.2-.5.5-.5h3c.3,0,.5.2.5.5v3Z"/>
  <path class="cls-2" d="M7.5,14.5h-3c-1.1,0-2,.9-2,2v3c0,1.1.9,2,2,2h3c1.1,0,2-.9,2-2v-3c0-1.1-.9-2-2-2ZM8,19.5c0,.3-.2.5-.5.5h-3c-.3,0-.5-.2-.5-.5v-3c0-.3.2-.5.5-.5h3c.3,0,.5.2.5.5v3Z"/>
</svg>